<mxfile host="app.diagrams.net" agent="Mozilla/5.0 (Windows NT 10.0; Win64; x64; rv:133.0) Gecko/20100101 Firefox/133.0" version="25.0.1">
  <diagram id="6a731a19-8d31-9384-78a2-239565b7b9f0" name="Page-1">
    <mxGraphModel dx="3609" dy="1301" grid="1" gridSize="10" guides="1" tooltips="1" connect="1" arrows="1" fold="1" page="1" pageScale="1" pageWidth="1169" pageHeight="827" background="none" math="0" shadow="0">
      <root>
        <mxCell id="0" />
        <mxCell id="1" parent="0" />
        <mxCell id="1747" value="" style="edgeStyle=elbowEdgeStyle;rounded=0;jumpStyle=none;html=1;shadow=0;labelBackgroundColor=none;startArrow=none;startFill=0;endArrow=classic;endFill=1;jettySize=auto;orthogonalLoop=1;strokeColor=#2F5B7C;strokeWidth=3;fontFamily=Helvetica;fontSize=16;fontColor=#23445D;spacing=5;entryX=0;entryY=0.5;entryDx=0;entryDy=0;" parent="1" target="1760" edge="1">
          <mxGeometry relative="1" as="geometry">
            <mxPoint x="140" y="130" as="sourcePoint" />
            <mxPoint x="228" y="218" as="targetPoint" />
            <Array as="points">
              <mxPoint x="140" y="170" />
            </Array>
          </mxGeometry>
        </mxCell>
        <mxCell id="1749" value="&lt;div&gt;Sport&lt;/div&gt;" style="rounded=1;whiteSpace=wrap;html=1;shadow=0;labelBackgroundColor=none;strokeColor=none;strokeWidth=3;fillColor=#2F5B7C;fontFamily=Helvetica;fontSize=16;fontColor=#FFFFFF;align=center;fontStyle=1;spacing=5;arcSize=7;perimeterSpacing=2;" parent="1" vertex="1">
          <mxGeometry x="65" y="60" width="150" height="70" as="geometry" />
        </mxCell>
        <mxCell id="8NNjv2l4ARxlBkfYkDxr-1783" style="edgeStyle=elbowEdgeStyle;shape=connector;rounded=0;jumpStyle=none;orthogonalLoop=1;jettySize=auto;html=1;exitX=0.5;exitY=1;exitDx=0;exitDy=0;entryX=0;entryY=0.5;entryDx=0;entryDy=0;shadow=0;strokeColor=#6c8ebf;strokeWidth=3;align=center;verticalAlign=middle;spacing=5;fontFamily=Helvetica;fontSize=16;fontColor=#23445D;labelBackgroundColor=none;startArrow=none;startFill=0;endArrow=classic;endFill=1;fillColor=#dae8fc;" edge="1" parent="1" source="1760" target="8NNjv2l4ARxlBkfYkDxr-1781">
          <mxGeometry relative="1" as="geometry">
            <Array as="points">
              <mxPoint x="305" y="290" />
            </Array>
          </mxGeometry>
        </mxCell>
        <mxCell id="1760" value="&lt;div&gt;Sports d&#39;équipe&lt;/div&gt;" style="rounded=1;whiteSpace=wrap;html=1;shadow=0;labelBackgroundColor=none;strokeColor=#6c8ebf;strokeWidth=3;fillColor=#dae8fc;fontFamily=Helvetica;fontSize=14;align=center;spacing=5;fontStyle=1;arcSize=7;perimeterSpacing=2;" parent="1" vertex="1">
          <mxGeometry x="230" y="180" width="150" height="60" as="geometry" />
        </mxCell>
        <mxCell id="8NNjv2l4ARxlBkfYkDxr-1781" value="Sports collectifs de ballon" style="rounded=1;whiteSpace=wrap;html=1;shadow=0;labelBackgroundColor=none;strokeColor=#6c8ebf;strokeWidth=3;fillColor=#dae8fc;fontFamily=Helvetica;fontSize=14;align=center;spacing=5;fontStyle=1;arcSize=7;perimeterSpacing=2;" vertex="1" parent="1">
          <mxGeometry x="380" y="260" width="150" height="60" as="geometry" />
        </mxCell>
        <mxCell id="8NNjv2l4ARxlBkfYkDxr-1782" value="Sports collectifs en salle" style="rounded=1;whiteSpace=wrap;html=1;shadow=0;labelBackgroundColor=none;strokeColor=#6c8ebf;strokeWidth=3;fillColor=#dae8fc;fontFamily=Helvetica;fontSize=14;align=center;spacing=5;fontStyle=1;arcSize=7;perimeterSpacing=2;" vertex="1" parent="1">
          <mxGeometry x="380" y="354" width="150" height="60" as="geometry" />
        </mxCell>
        <mxCell id="8NNjv2l4ARxlBkfYkDxr-1785" style="edgeStyle=elbowEdgeStyle;shape=connector;rounded=0;jumpStyle=none;orthogonalLoop=1;jettySize=auto;html=1;exitX=0.5;exitY=1;exitDx=0;exitDy=0;entryX=0;entryY=0.5;entryDx=0;entryDy=0;shadow=0;strokeColor=#6c8ebf;strokeWidth=3;align=center;verticalAlign=middle;spacing=5;fontFamily=Helvetica;fontSize=16;fontColor=#23445D;labelBackgroundColor=none;startArrow=none;startFill=0;endArrow=classic;endFill=1;fillColor=#dae8fc;" edge="1" parent="1" source="1760" target="8NNjv2l4ARxlBkfYkDxr-1782">
          <mxGeometry relative="1" as="geometry">
            <mxPoint x="300" y="272" as="sourcePoint" />
            <mxPoint x="373" y="320" as="targetPoint" />
            <Array as="points">
              <mxPoint x="305" y="300" />
            </Array>
          </mxGeometry>
        </mxCell>
        <mxCell id="8NNjv2l4ARxlBkfYkDxr-1786" style="edgeStyle=elbowEdgeStyle;shape=connector;rounded=0;jumpStyle=none;orthogonalLoop=1;jettySize=auto;html=1;exitX=0.5;exitY=1;exitDx=0;exitDy=0;entryX=0;entryY=0.5;entryDx=0;entryDy=0;shadow=0;strokeColor=#b85450;strokeWidth=3;align=center;verticalAlign=middle;spacing=5;fontFamily=Helvetica;fontSize=16;fontColor=#23445D;labelBackgroundColor=none;startArrow=none;startFill=0;endArrow=classic;endFill=1;fillColor=#f8cecc;" edge="1" parent="1" source="8NNjv2l4ARxlBkfYkDxr-1787" target="8NNjv2l4ARxlBkfYkDxr-1788">
          <mxGeometry relative="1" as="geometry">
            <Array as="points">
              <mxPoint x="305" y="550" />
            </Array>
          </mxGeometry>
        </mxCell>
        <mxCell id="8NNjv2l4ARxlBkfYkDxr-1787" value="Sports individuels" style="rounded=1;whiteSpace=wrap;html=1;shadow=0;labelBackgroundColor=none;strokeColor=#b85450;strokeWidth=3;fillColor=#f8cecc;fontFamily=Helvetica;fontSize=14;align=center;spacing=5;fontStyle=1;arcSize=7;perimeterSpacing=2;" vertex="1" parent="1">
          <mxGeometry x="230" y="440" width="150" height="60" as="geometry" />
        </mxCell>
        <mxCell id="8NNjv2l4ARxlBkfYkDxr-1788" value="Sports d&#39;Athlétisme" style="rounded=1;whiteSpace=wrap;html=1;shadow=0;labelBackgroundColor=none;strokeColor=#b85450;strokeWidth=3;fillColor=#f8cecc;fontFamily=Helvetica;fontSize=14;align=center;spacing=5;fontStyle=1;arcSize=7;perimeterSpacing=2;" vertex="1" parent="1">
          <mxGeometry x="380" y="520" width="150" height="60" as="geometry" />
        </mxCell>
        <mxCell id="8NNjv2l4ARxlBkfYkDxr-1789" value="Sports de raquette" style="rounded=1;whiteSpace=wrap;html=1;shadow=0;labelBackgroundColor=none;strokeColor=#b85450;strokeWidth=3;fillColor=#f8cecc;fontFamily=Helvetica;fontSize=14;align=center;spacing=5;fontStyle=1;arcSize=7;perimeterSpacing=2;" vertex="1" parent="1">
          <mxGeometry x="380" y="614" width="150" height="60" as="geometry" />
        </mxCell>
        <mxCell id="8NNjv2l4ARxlBkfYkDxr-1790" style="edgeStyle=elbowEdgeStyle;shape=connector;rounded=0;jumpStyle=none;orthogonalLoop=1;jettySize=auto;html=1;exitX=0.5;exitY=1;exitDx=0;exitDy=0;entryX=0;entryY=0.5;entryDx=0;entryDy=0;shadow=0;strokeColor=#b85450;strokeWidth=3;align=center;verticalAlign=middle;spacing=5;fontFamily=Helvetica;fontSize=16;fontColor=#23445D;labelBackgroundColor=none;startArrow=none;startFill=0;endArrow=classic;endFill=1;fillColor=#f8cecc;" edge="1" parent="1" source="8NNjv2l4ARxlBkfYkDxr-1787" target="8NNjv2l4ARxlBkfYkDxr-1789">
          <mxGeometry relative="1" as="geometry">
            <mxPoint x="300" y="532" as="sourcePoint" />
            <mxPoint x="373" y="580" as="targetPoint" />
            <Array as="points">
              <mxPoint x="305" y="560" />
            </Array>
          </mxGeometry>
        </mxCell>
        <mxCell id="8NNjv2l4ARxlBkfYkDxr-1791" value="" style="edgeStyle=elbowEdgeStyle;rounded=0;jumpStyle=none;html=1;shadow=0;labelBackgroundColor=none;startArrow=none;startFill=0;endArrow=classic;endFill=1;jettySize=auto;orthogonalLoop=1;strokeColor=#2F5B7C;strokeWidth=3;fontFamily=Helvetica;fontSize=16;fontColor=#23445D;spacing=5;entryX=0;entryY=0.5;entryDx=0;entryDy=0;exitX=0.5;exitY=1;exitDx=0;exitDy=0;" edge="1" parent="1" source="1749" target="8NNjv2l4ARxlBkfYkDxr-1787">
          <mxGeometry relative="1" as="geometry">
            <mxPoint x="150" y="140" as="sourcePoint" />
            <mxPoint x="238" y="220" as="targetPoint" />
            <Array as="points">
              <mxPoint x="140" y="180" />
            </Array>
          </mxGeometry>
        </mxCell>
        <mxCell id="8NNjv2l4ARxlBkfYkDxr-1792" style="edgeStyle=elbowEdgeStyle;shape=connector;rounded=0;jumpStyle=none;orthogonalLoop=1;jettySize=auto;html=1;exitX=0.5;exitY=1;exitDx=0;exitDy=0;entryX=0;entryY=0.5;entryDx=0;entryDy=0;shadow=0;strokeColor=#82b366;strokeWidth=3;align=center;verticalAlign=middle;spacing=5;fontFamily=Helvetica;fontSize=16;fontColor=#23445D;labelBackgroundColor=none;startArrow=none;startFill=0;endArrow=classic;endFill=1;fillColor=#d5e8d4;" edge="1" parent="1" source="8NNjv2l4ARxlBkfYkDxr-1793" target="8NNjv2l4ARxlBkfYkDxr-1794">
          <mxGeometry relative="1" as="geometry">
            <Array as="points">
              <mxPoint x="305" y="820" />
            </Array>
          </mxGeometry>
        </mxCell>
        <mxCell id="8NNjv2l4ARxlBkfYkDxr-1793" value="&lt;div&gt;Sports de combat&lt;br&gt;&lt;/div&gt;" style="rounded=1;whiteSpace=wrap;html=1;shadow=0;labelBackgroundColor=none;strokeColor=#82b366;strokeWidth=3;fillColor=#d5e8d4;fontFamily=Helvetica;fontSize=14;align=center;spacing=5;fontStyle=1;arcSize=7;perimeterSpacing=2;" vertex="1" parent="1">
          <mxGeometry x="230" y="710" width="150" height="60" as="geometry" />
        </mxCell>
        <mxCell id="8NNjv2l4ARxlBkfYkDxr-1794" value="Arts martiaux" style="rounded=1;whiteSpace=wrap;html=1;shadow=0;labelBackgroundColor=none;strokeColor=#82b366;strokeWidth=3;fillColor=#d5e8d4;fontFamily=Helvetica;fontSize=14;align=center;spacing=5;fontStyle=1;arcSize=7;perimeterSpacing=2;" vertex="1" parent="1">
          <mxGeometry x="380" y="790" width="150" height="60" as="geometry" />
        </mxCell>
        <mxCell id="8NNjv2l4ARxlBkfYkDxr-1797" value="" style="edgeStyle=elbowEdgeStyle;rounded=0;jumpStyle=none;html=1;shadow=0;labelBackgroundColor=none;startArrow=none;startFill=0;endArrow=classic;endFill=1;jettySize=auto;orthogonalLoop=1;strokeColor=#2F5B7C;strokeWidth=3;fontFamily=Helvetica;fontSize=16;fontColor=#23445D;spacing=5;entryX=0;entryY=0.5;entryDx=0;entryDy=0;exitX=0.5;exitY=1;exitDx=0;exitDy=0;" edge="1" parent="1" source="1749" target="8NNjv2l4ARxlBkfYkDxr-1793">
          <mxGeometry relative="1" as="geometry">
            <mxPoint x="150" y="142" as="sourcePoint" />
            <mxPoint x="238" y="480" as="targetPoint" />
            <Array as="points">
              <mxPoint x="140" y="310" />
            </Array>
          </mxGeometry>
        </mxCell>
        <mxCell id="8NNjv2l4ARxlBkfYkDxr-1798" style="edgeStyle=elbowEdgeStyle;shape=connector;rounded=0;jumpStyle=none;orthogonalLoop=1;jettySize=auto;html=1;exitX=0.5;exitY=1;exitDx=0;exitDy=0;entryX=0;entryY=0.5;entryDx=0;entryDy=0;shadow=0;strokeColor=#9673a6;strokeWidth=3;align=center;verticalAlign=middle;spacing=5;fontFamily=Helvetica;fontSize=16;fontColor=#23445D;labelBackgroundColor=none;startArrow=none;startFill=0;endArrow=classic;endFill=1;fillColor=#e1d5e7;" edge="1" parent="1" source="8NNjv2l4ARxlBkfYkDxr-1799" target="8NNjv2l4ARxlBkfYkDxr-1800">
          <mxGeometry relative="1" as="geometry">
            <Array as="points">
              <mxPoint x="315" y="1000" />
            </Array>
          </mxGeometry>
        </mxCell>
        <mxCell id="8NNjv2l4ARxlBkfYkDxr-1799" value="Sportifs" style="rounded=1;whiteSpace=wrap;html=1;shadow=0;labelBackgroundColor=none;strokeColor=#9673a6;strokeWidth=3;fillColor=#e1d5e7;fontFamily=Helvetica;fontSize=14;align=center;spacing=5;fontStyle=1;arcSize=7;perimeterSpacing=2;" vertex="1" parent="1">
          <mxGeometry x="240" y="890" width="150" height="60" as="geometry" />
        </mxCell>
        <mxCell id="8NNjv2l4ARxlBkfYkDxr-1800" value="Amateurs" style="rounded=1;whiteSpace=wrap;html=1;shadow=0;labelBackgroundColor=none;strokeColor=#9673a6;strokeWidth=3;fillColor=#e1d5e7;fontFamily=Helvetica;fontSize=14;align=center;spacing=5;fontStyle=1;arcSize=7;perimeterSpacing=2;" vertex="1" parent="1">
          <mxGeometry x="390" y="970" width="150" height="60" as="geometry" />
        </mxCell>
        <mxCell id="8NNjv2l4ARxlBkfYkDxr-1801" value="Profesionnels" style="rounded=1;whiteSpace=wrap;html=1;shadow=0;labelBackgroundColor=none;strokeColor=#9673a6;strokeWidth=3;fillColor=#e1d5e7;fontFamily=Helvetica;fontSize=14;align=center;spacing=5;fontStyle=1;arcSize=7;perimeterSpacing=2;" vertex="1" parent="1">
          <mxGeometry x="390" y="1064" width="150" height="60" as="geometry" />
        </mxCell>
        <mxCell id="8NNjv2l4ARxlBkfYkDxr-1802" style="edgeStyle=elbowEdgeStyle;shape=connector;rounded=0;jumpStyle=none;orthogonalLoop=1;jettySize=auto;html=1;exitX=0.5;exitY=1;exitDx=0;exitDy=0;entryX=0;entryY=0.5;entryDx=0;entryDy=0;shadow=0;strokeColor=#9673a6;strokeWidth=3;align=center;verticalAlign=middle;spacing=5;fontFamily=Helvetica;fontSize=16;fontColor=#23445D;labelBackgroundColor=none;startArrow=none;startFill=0;endArrow=classic;endFill=1;fillColor=#e1d5e7;" edge="1" parent="1" source="8NNjv2l4ARxlBkfYkDxr-1799" target="8NNjv2l4ARxlBkfYkDxr-1801">
          <mxGeometry relative="1" as="geometry">
            <mxPoint x="310" y="982" as="sourcePoint" />
            <mxPoint x="383" y="1030" as="targetPoint" />
            <Array as="points">
              <mxPoint x="315" y="1010" />
            </Array>
          </mxGeometry>
        </mxCell>
        <mxCell id="8NNjv2l4ARxlBkfYkDxr-1803" value="" style="edgeStyle=elbowEdgeStyle;rounded=0;jumpStyle=none;html=1;shadow=0;labelBackgroundColor=none;startArrow=none;startFill=0;endArrow=classic;endFill=1;jettySize=auto;orthogonalLoop=1;strokeColor=#2F5B7C;strokeWidth=3;fontFamily=Helvetica;fontSize=16;fontColor=#23445D;spacing=5;entryX=0;entryY=0.5;entryDx=0;entryDy=0;exitX=0.5;exitY=1;exitDx=0;exitDy=0;" edge="1" parent="1" source="1749" target="8NNjv2l4ARxlBkfYkDxr-1799">
          <mxGeometry relative="1" as="geometry">
            <mxPoint x="150" y="142" as="sourcePoint" />
            <mxPoint x="238" y="750" as="targetPoint" />
            <Array as="points">
              <mxPoint x="140" y="440" />
            </Array>
          </mxGeometry>
        </mxCell>
        <mxCell id="8NNjv2l4ARxlBkfYkDxr-1804" style="edgeStyle=elbowEdgeStyle;shape=connector;rounded=0;jumpStyle=none;orthogonalLoop=1;jettySize=auto;html=1;exitX=0.5;exitY=1;exitDx=0;exitDy=0;entryX=1;entryY=0.5;entryDx=0;entryDy=0;shadow=0;strokeColor=#6c8ebf;strokeWidth=3;align=center;verticalAlign=middle;spacing=5;fontFamily=Helvetica;fontSize=16;fontColor=#23445D;labelBackgroundColor=none;startArrow=none;startFill=0;endArrow=classic;endFill=1;fillColor=#dae8fc;" edge="1" parent="1" source="8NNjv2l4ARxlBkfYkDxr-1805" target="8NNjv2l4ARxlBkfYkDxr-1806">
          <mxGeometry relative="1" as="geometry">
            <Array as="points">
              <mxPoint x="-25" y="290" />
            </Array>
          </mxGeometry>
        </mxCell>
        <mxCell id="8NNjv2l4ARxlBkfYkDxr-1805" value="E-sport" style="rounded=1;whiteSpace=wrap;html=1;shadow=0;labelBackgroundColor=none;strokeColor=#6c8ebf;strokeWidth=3;fillColor=#dae8fc;fontFamily=Helvetica;fontSize=14;align=center;spacing=5;fontStyle=1;arcSize=7;perimeterSpacing=2;" vertex="1" parent="1">
          <mxGeometry x="-100" y="180" width="150" height="60" as="geometry" />
        </mxCell>
        <mxCell id="8NNjv2l4ARxlBkfYkDxr-1806" value="Jeux de combat" style="rounded=1;whiteSpace=wrap;html=1;shadow=0;labelBackgroundColor=none;strokeColor=#6c8ebf;strokeWidth=3;fillColor=#dae8fc;fontFamily=Helvetica;fontSize=14;align=center;spacing=5;fontStyle=1;arcSize=7;perimeterSpacing=2;" vertex="1" parent="1">
          <mxGeometry x="-250" y="260" width="150" height="60" as="geometry" />
        </mxCell>
        <mxCell id="8NNjv2l4ARxlBkfYkDxr-1807" value="Jeux de stratégie" style="rounded=1;whiteSpace=wrap;html=1;shadow=0;labelBackgroundColor=none;strokeColor=#6c8ebf;strokeWidth=3;fillColor=#dae8fc;fontFamily=Helvetica;fontSize=14;align=center;spacing=5;fontStyle=1;arcSize=7;perimeterSpacing=2;" vertex="1" parent="1">
          <mxGeometry x="-250" y="354" width="150" height="60" as="geometry" />
        </mxCell>
        <mxCell id="8NNjv2l4ARxlBkfYkDxr-1808" style="edgeStyle=elbowEdgeStyle;shape=connector;rounded=0;jumpStyle=none;orthogonalLoop=1;jettySize=auto;html=1;exitX=0.5;exitY=1;exitDx=0;exitDy=0;entryX=1;entryY=0.5;entryDx=0;entryDy=0;shadow=0;strokeColor=#6c8ebf;strokeWidth=3;align=center;verticalAlign=middle;spacing=5;fontFamily=Helvetica;fontSize=16;fontColor=#23445D;labelBackgroundColor=none;startArrow=none;startFill=0;endArrow=classic;endFill=1;fillColor=#dae8fc;" edge="1" parent="1" source="8NNjv2l4ARxlBkfYkDxr-1805" target="8NNjv2l4ARxlBkfYkDxr-1807">
          <mxGeometry relative="1" as="geometry">
            <mxPoint x="-30" y="272" as="sourcePoint" />
            <mxPoint x="43" y="320" as="targetPoint" />
            <Array as="points">
              <mxPoint x="-25" y="300" />
            </Array>
          </mxGeometry>
        </mxCell>
        <mxCell id="8NNjv2l4ARxlBkfYkDxr-1810" value="" style="edgeStyle=elbowEdgeStyle;rounded=0;jumpStyle=none;html=1;shadow=0;labelBackgroundColor=none;startArrow=none;startFill=0;endArrow=classic;endFill=1;jettySize=auto;orthogonalLoop=1;strokeColor=#2F5B7C;strokeWidth=3;fontFamily=Helvetica;fontSize=16;fontColor=#23445D;spacing=5;entryX=1;entryY=0.5;entryDx=0;entryDy=0;exitX=0.5;exitY=1;exitDx=0;exitDy=0;" edge="1" parent="1" source="1749" target="8NNjv2l4ARxlBkfYkDxr-1805">
          <mxGeometry relative="1" as="geometry">
            <mxPoint x="150" y="140" as="sourcePoint" />
            <mxPoint x="238" y="220" as="targetPoint" />
            <Array as="points">
              <mxPoint x="140" y="180" />
            </Array>
          </mxGeometry>
        </mxCell>
        <mxCell id="8NNjv2l4ARxlBkfYkDxr-1812" style="edgeStyle=elbowEdgeStyle;shape=connector;rounded=0;jumpStyle=none;orthogonalLoop=1;jettySize=auto;html=1;exitX=0.5;exitY=1;exitDx=0;exitDy=0;entryX=1;entryY=0.5;entryDx=0;entryDy=0;shadow=0;strokeColor=#b85450;strokeWidth=3;align=center;verticalAlign=middle;spacing=5;fontFamily=Helvetica;fontSize=16;fontColor=#23445D;labelBackgroundColor=none;startArrow=none;startFill=0;endArrow=classic;endFill=1;fillColor=#f8cecc;" edge="1" parent="1" source="8NNjv2l4ARxlBkfYkDxr-1813" target="8NNjv2l4ARxlBkfYkDxr-1814">
          <mxGeometry relative="1" as="geometry">
            <Array as="points">
              <mxPoint x="-25" y="550" />
            </Array>
          </mxGeometry>
        </mxCell>
        <mxCell id="8NNjv2l4ARxlBkfYkDxr-1813" value="&lt;div&gt;Sports extrêmes&lt;/div&gt;" style="rounded=1;whiteSpace=wrap;html=1;shadow=0;labelBackgroundColor=none;strokeColor=#b85450;strokeWidth=3;fillColor=#f8cecc;fontFamily=Helvetica;fontSize=14;align=center;spacing=5;fontStyle=1;arcSize=7;perimeterSpacing=2;" vertex="1" parent="1">
          <mxGeometry x="-100" y="440" width="150" height="60" as="geometry" />
        </mxCell>
        <mxCell id="8NNjv2l4ARxlBkfYkDxr-1814" value="Sports de glisse" style="rounded=1;whiteSpace=wrap;html=1;shadow=0;labelBackgroundColor=none;strokeColor=#b85450;strokeWidth=3;fillColor=#f8cecc;fontFamily=Helvetica;fontSize=14;align=center;spacing=5;fontStyle=1;arcSize=7;perimeterSpacing=2;" vertex="1" parent="1">
          <mxGeometry x="-250" y="527" width="150" height="60" as="geometry" />
        </mxCell>
        <mxCell id="8NNjv2l4ARxlBkfYkDxr-1817" value="" style="edgeStyle=elbowEdgeStyle;rounded=0;jumpStyle=none;html=1;shadow=0;labelBackgroundColor=none;startArrow=none;startFill=0;endArrow=classic;endFill=1;jettySize=auto;orthogonalLoop=1;strokeColor=#2F5B7C;strokeWidth=3;fontFamily=Helvetica;fontSize=16;fontColor=#23445D;spacing=5;entryX=1;entryY=0.5;entryDx=0;entryDy=0;exitX=0.5;exitY=1;exitDx=0;exitDy=0;" edge="1" parent="1" source="1749" target="8NNjv2l4ARxlBkfYkDxr-1813">
          <mxGeometry relative="1" as="geometry">
            <mxPoint x="150" y="142" as="sourcePoint" />
            <mxPoint x="238" y="480" as="targetPoint" />
            <Array as="points">
              <mxPoint x="140" y="300" />
            </Array>
          </mxGeometry>
        </mxCell>
        <mxCell id="8NNjv2l4ARxlBkfYkDxr-1818" style="edgeStyle=elbowEdgeStyle;shape=connector;rounded=0;jumpStyle=none;orthogonalLoop=1;jettySize=auto;html=1;exitX=0.5;exitY=1;exitDx=0;exitDy=0;entryX=1;entryY=0.5;entryDx=0;entryDy=0;shadow=0;strokeColor=#82b366;strokeWidth=3;align=center;verticalAlign=middle;spacing=5;fontFamily=Helvetica;fontSize=16;fontColor=#23445D;labelBackgroundColor=none;startArrow=none;startFill=0;endArrow=classic;endFill=1;fillColor=#d5e8d4;" edge="1" parent="1" source="8NNjv2l4ARxlBkfYkDxr-1819" target="8NNjv2l4ARxlBkfYkDxr-1820">
          <mxGeometry relative="1" as="geometry">
            <Array as="points">
              <mxPoint x="-25" y="724" />
            </Array>
          </mxGeometry>
        </mxCell>
        <mxCell id="8NNjv2l4ARxlBkfYkDxr-1819" value="Événements sportifs" style="rounded=1;whiteSpace=wrap;html=1;shadow=0;labelBackgroundColor=none;strokeColor=#82b366;strokeWidth=3;fillColor=#d5e8d4;fontFamily=Helvetica;fontSize=14;align=center;spacing=5;fontStyle=1;arcSize=7;perimeterSpacing=2;" vertex="1" parent="1">
          <mxGeometry x="-100" y="614" width="150" height="60" as="geometry" />
        </mxCell>
        <mxCell id="8NNjv2l4ARxlBkfYkDxr-1820" value="Compétitions multi-sports" style="rounded=1;whiteSpace=wrap;html=1;shadow=0;labelBackgroundColor=none;strokeColor=#82b366;strokeWidth=3;fillColor=#d5e8d4;fontFamily=Helvetica;fontSize=14;align=center;spacing=5;fontStyle=1;arcSize=7;perimeterSpacing=2;" vertex="1" parent="1">
          <mxGeometry x="-250" y="701" width="150" height="60" as="geometry" />
        </mxCell>
        <mxCell id="8NNjv2l4ARxlBkfYkDxr-1823" style="edgeStyle=elbowEdgeStyle;shape=connector;rounded=0;jumpStyle=none;orthogonalLoop=1;jettySize=auto;html=1;exitX=0.5;exitY=1;exitDx=0;exitDy=0;entryX=1;entryY=0.5;entryDx=0;entryDy=0;shadow=0;strokeColor=#9673a6;strokeWidth=3;align=center;verticalAlign=middle;spacing=5;fontFamily=Helvetica;fontSize=16;fontColor=#23445D;labelBackgroundColor=none;startArrow=none;startFill=0;endArrow=classic;endFill=1;fillColor=#e1d5e7;" edge="1" parent="1" source="8NNjv2l4ARxlBkfYkDxr-1824" target="8NNjv2l4ARxlBkfYkDxr-1825">
          <mxGeometry relative="1" as="geometry">
            <Array as="points">
              <mxPoint x="-35" y="904" />
            </Array>
          </mxGeometry>
        </mxCell>
        <mxCell id="8NNjv2l4ARxlBkfYkDxr-1824" value="Organismes sportifs" style="rounded=1;whiteSpace=wrap;html=1;shadow=0;labelBackgroundColor=none;strokeColor=#9673a6;strokeWidth=3;fillColor=#e1d5e7;fontFamily=Helvetica;fontSize=14;align=center;spacing=5;fontStyle=1;arcSize=7;perimeterSpacing=2;" vertex="1" parent="1">
          <mxGeometry x="-110" y="794" width="150" height="60" as="geometry" />
        </mxCell>
        <mxCell id="8NNjv2l4ARxlBkfYkDxr-1825" value="Fédérations internationales" style="rounded=1;whiteSpace=wrap;html=1;shadow=0;labelBackgroundColor=none;strokeColor=#9673a6;strokeWidth=3;fillColor=#e1d5e7;fontFamily=Helvetica;fontSize=14;align=center;spacing=5;fontStyle=1;arcSize=7;perimeterSpacing=2;" vertex="1" parent="1">
          <mxGeometry x="-260" y="881" width="150" height="60" as="geometry" />
        </mxCell>
        <mxCell id="8NNjv2l4ARxlBkfYkDxr-1826" value="" style="edgeStyle=elbowEdgeStyle;rounded=0;jumpStyle=none;html=1;shadow=0;labelBackgroundColor=none;startArrow=none;startFill=0;endArrow=classic;endFill=1;jettySize=auto;orthogonalLoop=1;strokeColor=#2F5B7C;strokeWidth=3;fontFamily=Helvetica;fontSize=16;fontColor=#23445D;spacing=5;entryX=1;entryY=0.5;entryDx=0;entryDy=0;exitX=0.5;exitY=1;exitDx=0;exitDy=0;" edge="1" parent="1" source="1749" target="8NNjv2l4ARxlBkfYkDxr-1819">
          <mxGeometry relative="1" as="geometry">
            <mxPoint x="150" y="142" as="sourcePoint" />
            <mxPoint x="62" y="480" as="targetPoint" />
            <Array as="points">
              <mxPoint x="140" y="300" />
            </Array>
          </mxGeometry>
        </mxCell>
        <mxCell id="8NNjv2l4ARxlBkfYkDxr-1827" value="" style="edgeStyle=elbowEdgeStyle;rounded=0;jumpStyle=none;html=1;shadow=0;labelBackgroundColor=none;startArrow=none;startFill=0;endArrow=classic;endFill=1;jettySize=auto;orthogonalLoop=1;strokeColor=#2F5B7C;strokeWidth=3;fontFamily=Helvetica;fontSize=16;fontColor=#23445D;spacing=5;entryX=1;entryY=0.5;entryDx=0;entryDy=0;exitX=0.5;exitY=1;exitDx=0;exitDy=0;" edge="1" parent="1" source="1749" target="8NNjv2l4ARxlBkfYkDxr-1824">
          <mxGeometry relative="1" as="geometry">
            <mxPoint x="150" y="142" as="sourcePoint" />
            <mxPoint x="62" y="750" as="targetPoint" />
            <Array as="points">
              <mxPoint x="140" y="570" />
            </Array>
          </mxGeometry>
        </mxCell>
        <mxCell id="8NNjv2l4ARxlBkfYkDxr-1828" style="edgeStyle=elbowEdgeStyle;shape=connector;rounded=0;jumpStyle=none;orthogonalLoop=1;jettySize=auto;html=1;exitX=0.5;exitY=1;exitDx=0;exitDy=0;entryX=1;entryY=0.5;entryDx=0;entryDy=0;shadow=0;strokeColor=#9673a6;strokeWidth=3;align=center;verticalAlign=middle;spacing=5;fontFamily=Helvetica;fontSize=16;fontColor=#23445D;labelBackgroundColor=none;startArrow=none;startFill=0;endArrow=classic;endFill=1;fillColor=#e1d5e7;" edge="1" parent="1" target="8NNjv2l4ARxlBkfYkDxr-1829" source="8NNjv2l4ARxlBkfYkDxr-1824">
          <mxGeometry relative="1" as="geometry">
            <Array as="points">
              <mxPoint x="-35" y="989" />
            </Array>
            <mxPoint x="-35" y="941" as="sourcePoint" />
          </mxGeometry>
        </mxCell>
        <mxCell id="8NNjv2l4ARxlBkfYkDxr-1829" value="Clubs" style="rounded=1;whiteSpace=wrap;html=1;shadow=0;labelBackgroundColor=none;strokeColor=#9673a6;strokeWidth=3;fillColor=#e1d5e7;fontFamily=Helvetica;fontSize=14;align=center;spacing=5;fontStyle=1;arcSize=7;perimeterSpacing=2;" vertex="1" parent="1">
          <mxGeometry x="-260" y="966" width="150" height="60" as="geometry" />
        </mxCell>
      </root>
    </mxGraphModel>
  </diagram>
</mxfile>
